# Blender v2.79 (sub 0) OBJ File: 'cubetest.blend'
# www.blender.org
mtllib texcube.mtl
v 1.000000 -1.000000 -1.000000
v 1.000000 -1.000000 1.000000
v -1.000000 -1.000000 1.000000
v -1.000000 -1.000000 -1.000000
v 1.000000 1.000000 -0.999999
v 0.999999 1.000000 1.000001
v -1.000000 1.000000 1.000000
v -1.000000 1.000000 -1.000000
vt 0.377914 0.748122
vt 0.377914 0.503906
vt 0.622129 0.503906
vt 0.622129 0.748122
vt 0.377914 0.015476
vt 0.622129 0.015475
vt 0.622129 0.259691
vt 0.377914 0.259691
vt 0.377914 0.992337
vt 0.133699 0.992337
vt 0.133699 0.748122
vt 0.866345 0.748122
vt 0.866345 0.992337
vt 0.622129 0.992337
vn 0.0000 -1.0000 0.0000
vn 0.0000 1.0000 0.0000
vn 1.0000 0.0000 0.0000
vn -0.0000 -0.0000 1.0000
vn -1.0000 -0.0000 -0.0000
vn 0.0000 0.0000 -1.0000
usemtl Cube_Texture
s off
f 1/1/1 2/2/1 3/3/1 4/4/1
f 5/5/2 8/6/2 7/7/2 6/8/2
f 1/1/3 5/9/3 6/10/3 2/11/3
f 2/2/4 6/8/4 7/7/4 3/3/4
f 3/12/5 7/13/5 8/14/5 4/4/5
f 5/9/6 1/1/6 4/4/6 8/14/6
